<svg width="28" height="28" viewBox="0 0 28 28" fill="none" xmlns="http://www.w3.org/2000/svg">
<g clip-path="url(#clip0_61_160)">
<circle cx="14" cy="14" r="14" fill="url(#paint0_linear_61_160)"/>
<path d="M14.167 19C19.6898 19 24.167 21.0147 24.167 23.5C24.167 25.9853 19.6898 28 14.167 28C8.64414 28 4.16699 25.9853 4.16699 23.5C4.16699 21.0147 8.64414 19 14.167 19ZM14.167 8C16.7442 8.00018 18.833 10.0898 18.833 12.667C18.8328 15.2441 16.7441 17.3328 14.167 17.333C11.5898 17.333 9.50018 15.2442 9.5 12.667C9.5 10.0897 11.5897 8 14.167 8Z" fill="white"/>
</g>
<defs>
<linearGradient id="paint0_linear_61_160" x1="4.96276e-10" y1="12.3529" x2="28" y2="12.7647" gradientUnits="userSpaceOnUse">
<stop stop-color="#562BE3"/>
<stop offset="1" stop-color="#C2A4F4"/>
</linearGradient>
<clipPath id="clip0_61_160">
<rect width="28" height="28" rx="14" fill="white"/>
</clipPath>
</defs>
</svg>
